<?xml version="1.0" encoding="UTF-8"?>
<svg width="120px" height="84px" viewBox="0 0 120 84" version="1.1" xmlns="http://www.w3.org/2000/svg" xmlns:xlink="http://www.w3.org/1999/xlink">
    <!-- Generator: sketchtool 54.1 (76490) - https://sketchapp.com -->
    <title>807B10D2-A986-4304-AA06-4224382E1EC3</title>
    <desc>Created with sketchtool.</desc>
    <g id="--IO-onboarding-e-validazione-email" stroke="none" stroke-width="1" fill="none" fill-rule="evenodd">
        <g id="7.2.1-email-validation-thankyou-page-(web)" transform="translate(-110.000000, -194.000000)">
            <g id="Group" transform="translate(24.000000, 185.000000)">
                <g id="email-checked-icon" transform="translate(66.000000, 0.000000)">
                    <rect id="Rectangle" x="0" y="0" width="140" height="102"></rect>
                    <path d="M56.5625,79 C57.8561401,79 58.90625,80.0454428 58.90625,81.3333333 C58.90625,82.6212239 57.8561401,83.6666667 56.5625,83.6666667 C55.2688599,83.6666667 54.21875,82.6212239 54.21875,81.3333333 C54.21875,80.0454428 55.2688599,79 56.5625,79 Z M118.90625,9 C130.537109,9 140,18.4208333 140,30 C140,40.7907553 131.782227,49.7048178 121.25,50.8696614 L121.25,86 C121.25,89.8572917 118.100586,93 114.21875,93 L27.03125,93 C23.1201172,93 20,89.8290364 20,86 L20,34.6666667 C20,30.7802083 23.1759643,27.6666667 27.03125,27.6666667 L97.9434205,27.6666667 C99.1134643,17.18125 108.067322,9 118.90625,9 Z M24.6875,34.7960939 L24.6875,85.6053386 L56.2796021,59.1502605 L24.6875,34.7960939 Z M60.0708008,62.0733072 L28.7112427,88.3333333 L113.693237,88.3333333 L81.9729615,61.5382811 L74.9938965,66.8402344 C73.7057495,67.8592447 72.1649169,68.36875 70.625,68.36875 C69.0814208,68.36875 67.5387573,67.8574219 66.2487793,66.8338542 L60.0708008,62.0733072 Z M85.7870483,58.6398439 L116.5625,84.6364583 L116.5625,50.8705728 C111.788025,50.3446614 107.368775,48.2200522 103.972168,44.8184895 L85.7870483,58.6398439 Z M72.1310424,63.1451822 C72.1539308,63.1269531 100.656128,41.4679689 101.054382,41.1653645 C99.3688965,38.4966145 98.3050536,35.46875 97.9489135,32.3333333 L29.1488647,32.3333333 C29.173584,32.3515625 69.100647,63.1305989 69.1317748,63.1552083 C69.1427612,63.1625 69.152832,63.1707031 69.1629029,63.1789061 C70.0234986,63.8652344 71.2255859,63.8652344 72.0861816,63.1789061 C72.1017455,63.1679689 72.1154785,63.1561197 72.1310424,63.1451822 Z M118.90625,46.3333333 C127.952576,46.3333333 135.3125,39.0061197 135.3125,30 C135.3125,20.9938803 127.952576,13.6666667 118.90625,13.6666667 C109.859924,13.6666667 102.5,20.9938803 102.5,30 C102.5,33.7488281 103.745117,37.2734375 106.099854,40.1946614 C109.240112,44.0966145 113.907471,46.3333333 118.90625,46.3333333 Z M126.624146,23.6835939 C127.539673,22.7721355 129.022827,22.7721355 129.938354,23.6835939 C130.853882,24.5950522 130.853882,26.0725261 129.938354,26.9830728 L118.219604,38.6497395 C117.304077,39.5611978 115.820923,39.5611978 114.905396,38.6497395 L107.874146,31.6497395 C106.958618,30.7382811 106.958618,29.2617189 107.874146,28.3502605 C108.789673,27.4388022 110.272827,27.4388022 111.188354,28.3502605 L116.5625,33.7005208 L126.624146,23.6835939 Z M86.09375,79 C87.3883058,79 88.4375,80.0445311 88.4375,81.3333333 C88.4375,82.6221355 87.3883058,83.6666667 86.09375,83.6666667 L65.9375,83.6666667 C64.6429442,83.6666667 63.59375,82.6221355 63.59375,81.3333333 C63.59375,80.0445311 64.6429442,79 65.9375,79 L86.09375,79 Z" id="Combined-Shape" fill="#00C5CA" fill-rule="nonzero"></path>
                </g>
            </g>
        </g>
    </g>
</svg>