<?xml version="1.0" encoding="UTF-8"?>
<svg width="80" height="80" viewBox="0 0 80 80" fill="none" xmlns="http://www.w3.org/2000/svg">
  <path
    d="M18.5279 62.2396C20.5208 63.4671 21.6779 65.7192 21.5323 68.0122C21.5323 68.2169 21.6958 68.3831 21.8978 68.3831L24.4472 68.3854C27.4583 68.5829 29.8015 71.1235 29.8015 74.1915C29.8015 77.2596 27.4583 79.8002 24.3762 80H8.66709L8.59002 79.9973C6.06525 79.8176 4.09917 77.6981 4.07045 75.1244C4.04259 72.5514 5.9621 70.3871 8.48233 70.1508L8.61248 70.1386L8.74184 70.1577C8.76522 70.1611 8.8807 70.1734 8.87859 70.1733C9.00194 70.1773 9.12071 70.1232 9.19507 70.0329C9.26893 69.942 9.29586 69.8222 9.27417 69.7314C9.127 69.1745 9.04807 68.6019 9.04218 68.0834C8.89436 65.7192 10.0515 63.4671 12.0444 62.2396C14.037 61.0123 16.5352 61.0123 18.5279 62.2396ZM67.2769 70.6203C67.8389 70.6203 68.2945 71.083 68.2945 71.6538C68.2945 72.2246 67.8389 72.6873 67.2769 72.6873C65.2045 72.6873 63.6292 73.8247 62.4468 75.7992C62.0133 76.5229 61.667 77.3081 61.4046 78.0912C61.3114 78.3691 61.2357 78.6273 61.178 78.8521L61.1589 78.9284L61.144 78.9911L61.1448 78.9773L61.1418 78.9522L61.1351 78.9261C61.135 78.981 61.138 78.9932 61.1388 79.0014C61.1387 79.0099 61.1384 79.0126 61.1377 79.0162L61.1357 79.022L61.1377 79.016L61.1423 78.9967L61.1413 79.0062L61.1377 79.016L61.1351 79.0287L61.1357 79.0227L61.1284 79.0424C61.0855 79.1387 60.9446 79.3294 60.553 79.8597L59.7961 79.9063L59.4978 79.7455L59.3966 79.6552L59.3339 79.5852C59.3106 79.5559 59.3106 79.5559 59.2772 79.5088C59.1732 79.3208 59.1732 79.3208 59.1629 79.2847C59.1461 79.2361 59.1461 79.2361 59.1404 79.2171C59.1305 79.1842 59.1305 79.1842 59.1204 79.1498C59.0978 79.0725 59.0807 79.0155 59.0577 78.9412C58.9847 78.706 58.899 78.453 58.7957 78.1773C58.4947 77.3741 58.1193 76.577 57.6635 75.8389C56.4274 73.8375 54.8768 72.6873 52.9583 72.6873C52.3963 72.6873 51.9407 72.2246 51.9407 71.6538C51.9407 71.083 52.3963 70.6203 52.9583 70.6203C55.6925 70.6203 57.8154 72.195 59.3875 74.7406C59.6332 75.1386 59.8574 75.5478 60.0615 75.9635C60.258 75.5365 60.4762 75.1122 60.7081 74.725C62.2272 72.1884 64.3989 70.6203 67.2769 70.6203ZM13.1884 64.16C11.899 64.9542 11.1503 66.4115 11.248 67.9962C11.2534 68.3833 11.3068 68.7709 11.4126 69.172C11.6069 69.9755 11.4161 70.8241 10.8932 71.4681C10.3788 72.0932 9.6096 72.4435 8.81347 72.4176C8.7562 72.416 8.66451 72.4081 8.57845 72.3988C7.25664 72.577 6.26368 73.7326 6.27831 75.0993C6.29401 76.4913 7.34842 77.6397 8.70898 77.7547H24.3382C26.1715 77.6172 27.5933 76.0643 27.5933 74.1915C27.5933 72.3075 26.1544 70.7473 24.3762 70.6283H21.8978C20.4764 70.6283 19.3241 69.4571 19.3264 67.9409C19.422 66.4115 18.6733 64.9542 17.3838 64.16C16.0944 63.3658 14.4779 63.3658 13.1884 64.16ZM14.4577 9.87721C16.4506 11.1047 17.6077 13.3568 17.4621 15.6498C17.4621 15.8545 17.6256 16.0207 17.8276 16.0207L20.3771 16.023C22.0294 16.1314 23.4807 16.9453 24.4539 18.1649L24.431 18.1861C26.9511 15.8754 30.2771 14.4686 33.9178 14.4686C41.7685 14.4686 48.1554 21.0099 48.1554 29.0505C48.1554 36.1384 43.192 42.0613 36.6383 43.3652L36.409 43.4088L39.6401 47.7316H34.5055L34.0815 49.8052C33.7635 51.3654 34.2483 52.9996 35.3493 54.1146L35.479 54.2409L35.5634 54.3185C37.3877 56.0249 38.1562 58.6047 37.5756 61.0569C37.4893 61.4197 37.4458 61.793 37.4458 62.1668C37.4458 63.4194 37.9375 64.6244 38.8011 65.5036L38.9405 65.6397L41.4185 67.957L39.9656 69.5867L37.4875 67.2694C36.0915 65.9637 35.291 64.1039 35.291 62.1668C35.291 61.6174 35.3551 61.0688 35.4815 60.5361C35.8627 58.927 35.3898 57.2366 34.2462 56.0802L34.1164 55.9539L34.0319 55.8762C32.3271 54.2811 31.5357 51.8849 31.9314 49.5703L31.972 49.3536L32.3037 47.7315H28.2525L31.1858 43.3619C24.6378 42.0532 19.6803 36.1342 19.6803 29.0505C19.6803 28.5681 19.7033 28.091 19.7482 27.6205L19.7466 27.6378L4.59694 27.6376L4.51987 27.6349C1.99509 27.4552 0.0290229 25.3357 0.000299337 22.762C-0.0275564 20.1889 1.89195 18.0247 4.41218 17.7884L4.54233 17.7762L4.67169 17.7953C4.69507 17.7987 4.81055 17.811 4.80844 17.8109C4.93179 17.8149 5.05056 17.7608 5.12492 17.6705C5.19877 17.5796 5.22571 17.4598 5.20402 17.369C5.05684 16.8121 4.97792 16.2395 4.97203 15.721C4.82421 13.3568 5.98133 11.1047 7.97421 9.87721C9.96688 8.6499 12.4651 8.6499 14.4577 9.87721ZM68.7264 39.5033C70.7193 40.7308 71.8764 42.9829 71.7308 45.2759C71.7308 45.4806 71.8943 45.6468 72.0963 45.6468L74.6458 45.6491C77.6569 45.8466 80 48.3872 80 51.4552C80 54.5233 77.6569 57.0639 74.5747 57.2637H58.8656L58.7886 57.261C56.2638 57.0813 54.2977 54.9618 54.269 52.3881C54.2411 49.815 56.1606 47.6508 58.6809 47.4145L58.811 47.4023L58.9404 47.4214C58.9638 47.4248 59.0792 47.4371 59.0771 47.437C59.2005 47.441 59.3192 47.3869 59.3936 47.2966C59.4675 47.2057 59.4944 47.0859 59.4727 46.9951C59.3255 46.4382 59.2466 45.8656 59.2407 45.3471C59.0929 42.9829 60.25 40.7308 62.2429 39.5033C64.2356 38.276 66.7338 38.276 68.7264 39.5033ZM16.3537 46.5061C16.9157 46.5061 17.3713 46.9688 17.3713 47.5396C17.3713 48.1103 16.9157 48.573 16.3537 48.573C14.2813 48.573 12.706 49.7105 11.5236 51.6849C11.0901 52.4087 10.7438 53.1938 10.4814 53.9769C10.3882 54.2548 10.3125 54.513 10.2548 54.7379L10.2357 54.8142L10.2208 54.8768L10.2216 54.863L10.2186 54.838L10.2119 54.8119C10.2118 54.8667 10.2148 54.8789 10.2156 54.8872L10.2157 54.8934C10.2155 54.8957 10.2151 54.8983 10.2145 54.902L10.213 54.9089C10.1811 54.9989 10.0494 55.1773 9.62976 55.7454L8.87293 55.792L8.5746 55.6312L8.47342 55.541L8.41071 55.4709C8.38743 55.4416 8.38743 55.4416 8.35403 55.3946C8.24999 55.2065 8.24999 55.2065 8.23973 55.1704C8.22289 55.1218 8.22289 55.1218 8.21717 55.1029C8.20729 55.07 8.20729 55.07 8.19722 55.0355C8.17456 54.9582 8.1575 54.9013 8.13447 54.827C8.06152 54.5917 7.97581 54.3388 7.8725 54.063C7.57154 53.2599 7.19613 52.4628 6.74027 51.7246C5.50423 49.7232 3.95362 48.573 2.03508 48.573C1.47311 48.573 1.01754 48.1103 1.01754 47.5396C1.01754 46.9688 1.47311 46.5061 2.03508 46.5061C4.7693 46.5061 6.89218 48.0808 8.46426 50.6263C8.71003 51.0243 8.93421 51.4335 9.13831 51.8493C9.33476 51.4222 9.55298 50.998 9.78486 50.6108C11.304 48.0742 13.4757 46.5061 16.3537 46.5061ZM63.3869 41.4237C62.0975 42.2179 61.3488 43.6751 61.4465 45.2599C61.4519 45.647 61.5054 46.0346 61.6111 46.4357C61.8054 47.2392 61.6146 48.0878 61.0918 48.7318C60.5773 49.3569 59.8081 49.7072 59.012 49.6813C58.9547 49.6797 58.863 49.6718 58.777 49.6625C57.4552 49.8407 56.4622 50.9963 56.4768 52.363C56.4925 53.755 57.547 54.9034 58.9075 55.0184H74.5367C76.37 54.8809 77.7918 53.328 77.7918 51.4552C77.7918 49.5712 76.3529 48.011 74.5747 47.892H72.0963C70.6749 47.892 69.5227 46.7208 69.5249 45.2046C69.6205 43.6751 68.8718 42.2179 67.5824 41.4237C66.2929 40.6295 64.6764 40.6295 63.3869 41.4237ZM33.7644 43.6316L32.3491 45.5245H35.2762L33.7644 43.6316ZM33.9178 16.6755C27.2554 16.6755 21.8352 22.2269 21.8352 29.0505C21.8352 35.8741 27.2554 41.4255 33.9178 41.4255C40.5803 41.4255 46.0005 35.8741 46.0005 29.0505C46.0005 22.2269 40.5803 16.6755 33.9178 16.6755ZM33.8409 18.252C39.697 18.252 44.4614 23.1315 44.4614 29.1294C44.4614 29.7389 43.979 30.2329 43.3839 30.2329C42.7888 30.2329 42.3064 29.7389 42.3064 29.1294C42.3064 24.3486 38.5088 20.4591 33.8409 20.4591C33.2458 20.4591 32.7634 19.965 32.7634 19.3555C32.7634 18.7461 33.2458 18.252 33.8409 18.252ZM9.11826 11.7976C7.82881 12.5918 7.08011 14.049 7.17786 15.6338C7.18326 16.0209 7.23668 16.4085 7.34242 16.8096C7.53674 17.6131 7.34594 18.4617 6.82309 19.1057C6.30865 19.7308 5.53945 20.0811 4.74332 20.0552C4.68605 20.0536 4.59436 20.0457 4.5083 20.0364C3.18648 20.2146 2.19353 21.3702 2.20816 22.7369C2.22386 24.1289 3.27827 25.2773 4.63883 25.3923L20.134 25.3921L20.1507 25.3268C20.681 23.2716 21.6395 21.3928 22.9221 19.797L22.9119 19.8096C22.3279 18.9339 21.3787 18.3377 20.306 18.2659H17.8276C16.4062 18.2659 15.254 17.0947 15.2562 15.5785C15.3518 14.049 14.6031 12.5918 13.3137 11.7976C12.0242 11.0034 10.4077 11.0034 9.11826 11.7976ZM65.8739 11.3682C66.4359 11.3682 66.8914 11.8309 66.8914 12.4016C66.8914 12.9724 66.4359 13.4351 65.8739 13.4351C63.8014 13.4351 62.2262 14.5725 61.0437 16.547C60.6103 17.2707 60.2639 18.0559 60.0015 18.839C59.9084 19.1169 59.8326 19.3751 59.775 19.5999C59.7644 19.6414 59.7548 19.6802 59.7463 19.7155L59.741 19.7373L59.7417 19.7251L59.7388 19.7001L59.732 19.6739C59.732 19.7288 59.7349 19.741 59.7358 19.7493L59.7358 19.7542L59.7346 19.7656L59.7403 19.7413L59.7382 19.754C59.7176 19.8389 59.5975 20.0015 59.1499 20.6075L58.3931 20.6541L58.0948 20.4933L57.9936 20.403L57.9309 20.333C57.9076 20.3037 57.9076 20.3037 57.8742 20.2566C57.7702 20.0686 57.7702 20.0686 57.7599 20.0325C57.7431 19.9839 57.7431 19.9839 57.7373 19.9649C57.7275 19.932 57.7275 19.932 57.7174 19.8976C57.6947 19.8203 57.6777 19.7633 57.6546 19.689C57.5817 19.4538 57.496 19.2008 57.3927 18.9251C57.0917 18.1219 56.7163 17.3249 56.2604 16.5867C55.0244 14.5853 53.4738 13.4351 51.5553 13.4351C50.9933 13.4351 50.5377 12.9724 50.5377 12.4016C50.5377 11.8309 50.9933 11.3682 51.5553 11.3682C54.2895 11.3682 56.4123 12.9429 57.9844 15.4884C58.2302 15.8864 58.4544 16.2956 58.6585 16.7113C58.8549 16.2843 59.0732 15.86 59.305 15.4728C60.8242 12.9362 62.9958 11.3682 65.8739 11.3682ZM43.1161 8.38732C43.1159 8.38957 43.1155 8.39221 43.1148 8.39588L43.1134 8.40277C43.0815 8.4928 42.9498 8.6712 42.5302 9.23935L41.7733 9.28595L41.475 9.12516L41.3738 9.03487L41.3111 8.96484C41.2878 8.93555 41.2878 8.93555 41.2544 8.88848C41.1504 8.70041 41.1504 8.70041 41.1401 8.66434C41.1233 8.61575 41.1233 8.61575 41.1176 8.59679C41.1077 8.56387 41.1077 8.56387 41.0976 8.52944C41.0749 8.45216 41.0579 8.39517 41.0349 8.32089C40.9619 8.08565 40.8762 7.83268 40.7729 7.55696C40.4719 6.75377 40.0965 5.9567 39.6407 5.21856C38.4046 3.21714 36.854 2.06694 34.9355 2.06694C34.3735 2.06694 33.9179 1.60424 33.9179 1.03347C33.9179 0.4627 34.3735 0 34.9355 0C37.6697 0 39.7926 1.5747 41.3647 4.12025C41.6104 4.51821 41.8346 4.92741 42.0387 5.34319C42.2351 4.91611 42.4534 4.49188 42.6853 4.1047C44.2044 1.56809 46.376 0 49.2541 0C49.8161 0 50.2716 0.4627 50.2716 1.03347C50.2716 1.60424 49.8161 2.06694 49.2541 2.06694C47.1817 2.06694 45.6064 3.20438 44.4239 5.17884C43.9905 5.90257 43.6441 6.68771 43.3817 7.47083C43.2886 7.74874 43.2129 8.00691 43.1552 8.23176L43.1361 8.30809L43.1212 8.37076L43.122 8.35695L43.119 8.3319L43.1123 8.30578C43.1122 8.36065 43.1152 8.37281 43.116 8.3811L43.1161 8.38732Z"
    fill="#00C5CA" />
</svg>
