<?xml version="1.0" encoding="UTF-8"?>
<svg width="61" height="80" viewBox="0 0 61 80" fill="none" xmlns="http://www.w3.org/2000/svg">
  <mask id="mask0_1824_2831" style="mask-type:luminance" maskUnits="userSpaceOnUse" x="0" y="0"
    width="61" height="80">
    <path fill-rule="evenodd" clip-rule="evenodd"
      d="M0.610122 20.9084C0.616216 20.8863 0.622284 20.8644 0.631138 20.8426C0.691825 20.701 0.77553 20.5706 0.878767 20.4555L19.4502 0.455497C19.4558 0.448521 19.4711 0.438756 19.4711 0.438756C19.5004 0.412946 19.5304 0.38923 19.5611 0.366909C19.6581 0.279715 19.7669 0.206473 19.8841 0.149972C19.9308 0.129046 19.9782 0.11091 20.0271 0.0955636C20.1526 0.0502232 20.2838 0.0237164 20.417 0.0174386C20.4305 0.0167789 20.4431 0.0128436 20.4558 0.00887811C20.4699 0.00445779 20.4842 0 20.5 0H59.0714C59.8604 0 60.5 0.639648 60.5 1.42857V78.5714C60.5 79.3604 59.8604 80 59.0714 80H1.92857C1.13965 80 0.5 79.3604 0.5 78.5714V21.4286C0.5 21.4141 0.504111 21.4007 0.508171 21.3875L0.508172 21.3874C0.512132 21.3745 0.516044 21.3618 0.516044 21.3484C0.523716 21.2151 0.550921 21.0833 0.595564 20.957C0.601169 20.9408 0.605652 20.9246 0.610119 20.9084L0.610122 20.9084ZM19.0714 20V5.06696L5.20424 20H19.0714ZM3.35714 22.8571H20.5C21.2889 22.8571 21.9286 22.2175 21.9286 21.4286V2.85714H57.6429V77.1429H3.35714V22.8571ZM24.5555 36.446C24.4865 36.5674 24.3986 36.6776 24.296 36.7732C24.2872 36.781 24.281 36.7905 24.2748 36.8C24.2678 36.8108 24.2608 36.8215 24.25 36.8297L17.1071 42.5439C16.4912 43.0371 15.5914 42.9374 15.0989 42.3214C14.6057 41.7055 14.7055 40.8057 15.3214 40.3132L19.2842 37.1429H14.7857C13.9968 37.1429 13.3571 36.5032 13.3571 35.7143C13.3571 34.9254 13.9968 34.2857 14.7857 34.2857H19.2842L15.3214 31.114C14.7055 30.6215 14.6057 29.7217 15.0989 29.1057C15.5914 28.4898 16.4912 28.3901 17.1071 28.8825L24.25 34.5968C24.2606 34.6053 24.2676 34.616 24.2746 34.6267C24.2808 34.6364 24.2871 34.6461 24.296 34.654C24.3986 34.7503 24.4865 34.8605 24.5555 34.9826C24.5911 35.0279 24.6232 35.076 24.6511 35.1256C24.8304 35.4973 24.8304 35.9312 24.6511 36.303C24.6225 36.3525 24.5904 36.4 24.5555 36.446ZM46.2143 34.2857H41.7158L45.6786 31.1154C46.2945 30.6229 46.3943 29.7231 45.9011 29.1071C45.4086 28.4912 44.5088 28.3915 43.8929 28.8846L36.75 34.5989C36.7392 34.6071 36.7322 34.6178 36.7252 34.6286C36.719 34.6381 36.7128 34.6476 36.704 34.6554C36.6014 34.751 36.5135 34.8612 36.4445 34.9826C36.4096 35.0286 36.3775 35.076 36.3489 35.1256C36.1696 35.4973 36.1696 35.9312 36.3489 36.303C36.3775 36.3525 36.4096 36.4 36.4445 36.446C36.5135 36.5674 36.6014 36.6776 36.704 36.7732C36.7128 36.781 36.719 36.7905 36.7252 36.8C36.7322 36.8108 36.7392 36.8215 36.75 36.8297L43.8929 42.5439C44.5088 43.0371 45.4086 42.9374 45.9011 42.3214C46.3943 41.7055 46.2945 40.8057 45.6786 40.3132L41.7158 37.1429H46.2143C47.0032 37.1429 47.6429 36.5032 47.6429 35.7143C47.6429 34.9254 47.0032 34.2857 46.2143 34.2857ZM18.5783 55.1786C20.5321 50.3118 25.2559 47.1275 30.5 47.1429C35.7441 47.1275 40.4679 50.3118 42.4217 55.1786C42.617 55.6522 42.5431 56.1949 42.2292 56.5995C41.9146 57.0047 41.4068 57.2098 40.8997 57.1373C40.3919 57.0654 39.9622 56.7264 39.7732 56.25C38.2462 52.4693 34.5771 49.9937 30.5 49.9937C26.4229 49.9937 22.7538 52.4693 21.2268 56.25C20.9276 56.9761 20.0989 57.3242 19.3707 57.0299C18.6431 56.7355 18.2888 55.9082 18.5783 55.1786Z"
      fill="white" />
  </mask>
  <g mask="url(#mask0_1824_2831)">
    <rect x="-12.1533" y="-9.51501" width="90.6667" height="93.3333" fill="#00C5CA" />
  </g>
</svg>
