<?xml version="1.0" encoding="UTF-8"?>
<svg width="80" height="80" viewBox="0 0 80 80" fill="none" xmlns="http://www.w3.org/2000/svg">
  <mask id="mask0_46_14709" style="mask-type:luminance" maskUnits="userSpaceOnUse" x="5" y="0"
    width="69" height="80">
    <path fill-rule="evenodd" clip-rule="evenodd"
      d="M64.9621 0.861659C64.9621 1.33754 65.3464 1.72332 65.8205 1.72332H68.1546L65.1568 5.39146C64.6972 5.95387 65.0958 6.79962 65.8205 6.79962H69.9691C70.4431 6.79962 70.8274 6.41384 70.8274 5.93796C70.8274 5.46208 70.4431 5.0763 69.9691 5.0763H67.6349L70.6327 1.40816C71.0923 0.845752 70.6937 0 69.9691 0H65.8205C65.3464 0 64.9621 0.385778 64.9621 0.861659ZM58.4662 4.10945C58.4662 4.58533 58.8505 4.97111 59.3246 4.97111H61.6587L58.661 8.63925C58.2013 9.20166 58.5999 10.0474 59.3246 10.0474H63.4732C63.9472 10.0474 64.3316 9.66163 64.3316 9.18575C64.3316 8.70987 63.9472 8.32409 63.4732 8.32409H61.1391L64.1368 4.65595C64.5964 4.09354 64.1978 3.24779 63.4732 3.24779H59.3246C58.8505 3.24779 58.4662 3.63357 58.4662 4.10945ZM47.8861 15.2327C47.8861 13.0099 46.0811 11.2016 43.8624 11.2016H35.4756L35.325 11.2043C33.1758 11.284 31.4519 13.0605 31.4519 15.2327C31.4519 17.4555 33.2569 19.2639 35.4756 19.2639H38.3278V21.6418L37.8981 21.6643C32.4617 21.9886 27.3082 23.8028 22.9116 26.9119L20.6212 24.6172L25.3578 19.8719L25.4361 19.7864C25.8801 19.2585 25.8539 18.4687 25.3578 17.9716C23.3882 15.9984 20.7696 14.9116 17.9841 14.9116C15.1986 14.9116 12.58 15.9982 10.6103 17.9716L8.38787 20.1983L8.20004 20.3912C6.34942 22.3408 5.3335 24.885 5.3335 27.5855C5.3335 30.376 6.41828 32.9996 8.38774 34.973C8.63922 35.2249 8.98043 35.3666 9.33612 35.3666C9.69182 35.3666 10.033 35.2249 10.2845 34.973L14.9473 30.3016L17.0444 32.4026L16.7984 32.7092C12.7353 37.843 10.5295 44.1534 10.5295 50.804C10.5295 57.4828 12.7549 63.818 16.851 68.9635L11.4927 77.844C11.2841 78.2037 11.2349 78.3458 11.2349 78.6471C11.2349 79.0046 11.3771 79.3474 11.6299 79.5996C11.9863 79.9551 12.2408 79.9929 13.0131 79.9988L14.3298 79.9998L17.2084 79.9908L17.3468 79.9851C17.6947 79.9531 18.0183 79.786 18.2464 79.5168L22.5533 74.4359L22.8771 74.669C27.7559 78.1303 33.569 79.9972 39.6691 79.9972C45.9047 79.9972 51.8403 78.0464 56.7847 74.4359L61.0916 79.5168L61.171 79.6027C61.4195 79.8488 61.7555 79.9892 62.1079 79.9907L64.7197 79.9994L66.3249 79.9988C67.0971 79.9929 67.3517 79.955 67.7081 79.5996C67.9609 79.3474 68.1031 79.0046 68.1031 78.6471C68.1031 78.2956 68.0362 78.1607 67.7271 77.6443L62.487 68.9635C66.5832 63.818 68.8084 57.4828 68.8084 50.804C68.8084 44.0205 66.5137 37.591 62.2938 32.403L64.3912 30.3017L69.054 34.9731L69.1411 35.053C69.3815 35.2548 69.6863 35.3667 70.0025 35.3667C70.3582 35.3667 70.6994 35.2251 70.9509 34.9731C75.0166 30.8995 75.0166 24.2716 70.9508 20.1981L68.7282 17.9715L68.5356 17.7833C66.5895 15.9292 64.0501 14.9116 61.3544 14.9116C58.569 14.9116 55.9504 15.9984 53.9808 17.9716C53.457 18.4963 53.457 19.3472 53.9808 19.8719L58.7173 24.6172L56.4266 26.9122L56.078 26.6694C51.6417 23.6283 46.4612 21.8876 41.0102 21.6418V19.2639H43.8624L44.013 19.2611C46.1622 19.1814 47.8861 17.405 47.8861 15.2327ZM14.9442 77.3111L18.7076 71.0804L18.7573 71.132L18.7574 71.1321C18.859 71.2374 18.9607 71.3429 19.0645 71.4467C19.517 71.9001 19.9831 72.335 20.4593 72.7547L16.6014 77.306L14.9442 77.3111ZM60.2737 71.4467C60.3944 71.3258 60.5123 71.2029 60.6306 71.0804L64.3938 77.3111L62.7366 77.306L58.8787 72.7547L59.234 72.437C59.5872 72.1164 59.9342 71.7867 60.2737 71.4467ZM13.2123 50.8039C13.2123 36.1884 25.0808 24.2978 39.6691 24.2978C54.2573 24.2978 66.1259 36.1884 66.1259 50.8039C66.1259 65.4193 54.2573 77.3097 39.6691 77.3097C25.0807 77.3097 13.2123 65.4192 13.2123 50.8039ZM62.9032 50.8039C62.9032 37.9688 52.4803 27.5268 39.6691 27.5268C34.3566 27.5268 29.3561 29.2754 25.2085 32.5836C21.1843 35.7933 18.3021 40.3034 17.0928 45.2831C16.9178 46.0041 17.3592 46.7309 18.0791 46.9064C18.7986 47.0815 19.5241 46.6395 19.6994 45.9184C21.9447 36.672 30.1567 30.2142 39.6692 30.2142C51.0014 30.2142 60.2207 39.4507 60.2207 50.8039C60.2207 62.1571 51.0014 71.3935 39.6692 71.3935C30.0668 71.3935 21.8372 64.8609 19.6561 55.5074C19.4875 54.7847 18.7662 54.3357 18.0448 54.5046C17.3235 54.6734 16.8754 55.3961 17.0439 56.1188C18.2165 61.1475 21.0877 65.708 25.1287 68.96C29.2319 72.2623 34.3958 74.0809 39.6692 74.0809C52.4805 74.0809 62.9032 63.6389 62.9032 50.8039ZM31.9253 41.1523C31.3984 40.7075 30.6101 40.7337 30.1138 41.2308C29.59 41.7555 29.59 42.6064 30.1138 43.1312L35.5701 48.5977L35.4775 48.7793C35.1814 49.3919 35.015 50.0787 35.015 50.8039C35.015 52.9077 36.4135 54.6899 38.3277 55.2682V67.9512L38.3314 68.0514C38.3827 68.7467 38.962 69.2949 39.6691 69.2949C40.4098 69.2949 41.0103 68.6933 41.0103 67.9512V55.2682L41.1731 55.2157C43.0034 54.5878 44.323 52.8476 44.323 50.8039C44.323 48.2329 42.2352 46.1413 39.6691 46.1413C38.8729 46.1413 38.123 46.3428 37.467 46.6973L32.0107 41.2308L31.9253 41.1523ZM55.7355 54.863C55.486 54.613 55.14 54.4692 54.7873 54.4692C54.4345 54.4692 54.0885 54.613 53.839 54.863C53.5895 55.1129 53.446 55.4596 53.446 55.813C53.446 56.1664 53.5895 56.513 53.839 56.763C54.0885 57.0129 54.4345 57.1567 54.7873 57.1567C55.14 57.1567 55.486 57.0129 55.7355 56.763C55.985 56.513 56.1285 56.1664 56.1285 55.813C56.1285 55.4596 55.985 55.1129 55.7355 54.863ZM37.6975 50.8039C37.6975 49.7148 38.5819 48.8287 39.6689 48.8287C40.756 48.8287 41.6404 49.7148 41.6404 50.8039C41.6404 51.8929 40.756 52.779 39.6689 52.779C38.5819 52.779 37.6975 51.8929 37.6975 50.8039ZM53.2017 41.4141C52.7794 40.8043 51.9437 40.653 51.3351 41.076C50.7264 41.499 50.5754 42.3363 50.9976 42.9461C52.5996 45.2595 53.4464 47.9767 53.4464 50.804C53.4464 51.5461 54.0469 52.1477 54.7877 52.1477C55.5284 52.1477 56.1289 51.5461 56.1289 50.804C56.1289 47.4264 55.1167 44.1796 53.2017 41.4141ZM18.7243 49.8536C18.4748 49.6036 18.1288 49.4599 17.7761 49.4599C17.4233 49.4599 17.0773 49.6036 16.8278 49.8536C16.5784 50.1035 16.4348 50.4502 16.4348 50.8036C16.4348 51.157 16.5784 51.5037 16.8278 51.7536C17.0773 52.0035 17.4233 52.1473 17.7761 52.1473C18.1288 52.1473 18.475 52.0035 18.7243 51.7536C18.9738 51.5037 19.1173 51.157 19.1173 50.8036C19.1173 50.4502 18.9738 50.1035 18.7243 49.8536ZM12.6835 19.7006C14.1697 18.3019 16.0768 17.6026 17.9841 17.6026C19.5429 17.6026 21.1015 18.0697 22.4304 19.004L9.41753 32.041L9.26963 31.8228C8.45369 30.5735 8.01595 29.1132 8.01595 27.5855C8.01595 25.5128 8.82163 23.5642 10.2846 22.0984L12.5072 19.8718L12.6835 19.7006ZM57.1252 18.8549C58.3721 18.0374 59.8297 17.5989 61.3546 17.5989C63.4234 17.5989 65.3686 18.406 66.8315 19.8718L69.054 22.0984L69.2041 22.253C71.7607 24.9587 71.9995 29.0716 69.9202 32.0402L56.9073 19.003L57.1252 18.8549ZM58.5601 28.5756L60.6144 26.5175L62.4944 28.4011L60.5029 30.3963L60.2737 30.161C59.7206 29.6069 59.1484 29.079 58.5601 28.5756ZM16.8443 28.4011L18.7245 26.5175L20.7784 28.5753L20.3402 28.9576C19.905 29.3445 19.4793 29.7453 19.0645 30.161L18.8355 30.396L16.8443 28.4011ZM35.4756 13.889H43.8624L43.9624 13.8927C44.6554 13.9441 45.2036 14.5255 45.2036 15.2327C45.2036 15.9736 44.602 16.5764 43.8624 16.5764H35.4756L35.3756 16.5727C34.6826 16.5213 34.1344 15.94 34.1344 15.2327C34.1344 14.4918 34.736 13.889 35.4756 13.889ZM52.8633 8.45088C52.3892 8.45088 52.0049 8.0651 52.0049 7.58922C52.0049 7.11334 52.3892 6.72756 52.8633 6.72756H57.0118C57.7365 6.72756 58.1351 7.57332 57.6755 8.13573L54.6777 11.8039H57.0118C57.4859 11.8039 57.8702 12.1896 57.8702 12.6655C57.8702 13.1414 57.4859 13.5272 57.0118 13.5272H52.8633C52.1386 13.5272 51.74 12.6814 52.1996 12.119L55.1974 8.45088H52.8633Z"
      fill="white" />
  </mask>
  <g mask="url(#mask0_46_14709)">
    <rect x="-8.79492" y="-4.27087" width="100" height="89.3333" fill="#00C5CA" />
  </g>
</svg>
